/* XPM */
static char *_1767abb548e4817b4fe42199f1588adg8m2lwrkFiVzUtfm[] = {
/* columns rows colors chars-per-pixel */
"64 64 192 2 ",
"   c #1F1616",
".  c #241615",
"X  c #281715",
"o  c #271817",
"O  c #2C1916",
"+  c #261A1B",
"@  c #2B1C1C",
"#  c #351B15",
"$  c #321F1D",
"%  c #2F201F",
"&  c #34211E",
"*  c #3E261F",
"=  c #2B1F20",
"-  c #222325",
";  c #2D2222",
":  c #262629",
">  c #2B2629",
",  c #27282B",
"<  c #2A2A2D",
"1  c #332424",
"2  c #3A2524",
"3  c #342A26",
"4  c #3B2925",
"5  c #332728",
"6  c #342B2C",
"7  c #3A2C2C",
"8  c #363024",
"9  c #3E322F",
"0  c #2E2E32",
"q  c #312E32",
"w  c #382E31",
"e  c #2F3034",
"r  c #2F3138",
"t  c #323235",
"y  c #3C3334",
"u  c #3B3B30",
"i  c #34353A",
"p  c #3B3739",
"a  c #37383D",
"s  c #3B393D",
"d  c #421E12",
"f  c #472112",
"g  c #4B2413",
"h  c #43261E",
"j  c #48271A",
"k  c #4D2A1B",
"l  c #502613",
"z  c #552B15",
"x  c #5B2D15",
"c  c #552D19",
"v  c #5A3016",
"b  c #5C311A",
"n  c #653316",
"m  c #6C3717",
"M  c #643518",
"N  c #6A3718",
"B  c #6B3B1A",
"V  c #723E1B",
"C  c #442720",
"Z  c #432A22",
"A  c #4C2E22",
"S  c #422E2B",
"D  c #43312D",
"F  c #4F352A",
"G  c #563424",
"H  c #503429",
"J  c #53392C",
"K  c #433534",
"L  c #473735",
"P  c #443936",
"I  c #4C3A36",
"U  c #433B3C",
"Y  c #4A3D3B",
"T  c #543D34",
"R  c #3D432A",
"E  c #75411C",
"W  c #7B451D",
"Q  c #7E481E",
"!  c #474639",
"~  c #4C423E",
"^  c #4B503C",
"/  c #72472C",
"(  c #363940",
")  c #3B3D43",
"_  c #433E41",
"`  c #3E4046",
"'  c #3F4148",
"]  c #434244",
"[  c #4A4343",
"{  c #4E4A46",
"}  c #42444B",
"|  c #43454B",
" . c #43454C",
".. c #45464D",
"X. c #45464E",
"o. c #4A4749",
"O. c #47484E",
"+. c #47484F",
"@. c #4C4A4C",
"#. c #514645",
"$. c #524946",
"%. c #524C4B",
"&. c #594D4E",
"*. c #55504F",
"=. c #474850",
"-. c #484950",
";. c #494A51",
":. c #4A4B52",
">. c #4B4C53",
",. c #4C4D53",
"<. c #4D4E55",
"1. c #524E50",
"2. c #4F5056",
"3. c #4F5158",
"4. c #545254",
"5. c #5B5554",
"6. c #515C50",
"7. c #5D5A57",
"8. c #515259",
"9. c #53545A",
"0. c #55565C",
"q. c #5A5659",
"w. c #57585E",
"e. c #5B5B5B",
"r. c #66514D",
"t. c #6C554E",
"y. c #78594D",
"u. c #645656",
"i. c #675855",
"p. c #625C5C",
"a. c #6B5C59",
"s. c #705C57",
"d. c #735E58",
"f. c #5F605F",
"g. c #62605F",
"h. c #7C6056",
"j. c #7A6159",
"k. c #575960",
"l. c #5C5D61",
"z. c #605E62",
"x. c #5E6065",
"c. c #636364",
"v. c #696565",
"b. c #6A6767",
"n. c #64656A",
"m. c #66696D",
"M. c #6C6B6B",
"N. c #756865",
"B. c #716D6D",
"V. c #6F706F",
"C. c #72706F",
"Z. c #6B6D72",
"A. c #706F73",
"S. c #6F7175",
"D. c #737374",
"F. c #797776",
"G. c #72757A",
"H. c #75797E",
"J. c #7A7B7B",
"K. c #80471D",
"L. c #834A1F",
"P. c #884D1F",
"I. c #864D20",
"U. c #894E20",
"Y. c #8E5121",
"T. c #915322",
"R. c #965824",
"E. c #985924",
"W. c #835F4F",
"Q. c #88614D",
"!. c #807F7F",
"~. c #777B80",
"^. c #7A7D82",
"/. c #7D8186",
"(. c #7F8388",
"). c #828385",
"_. c #81858A",
"`. c #85898E",
"'. c #8A8A8C",
"]. c #878B90",
"[. c #898E93",
"{. c #8B9196",
"}. c #8E9399",
"|. c #959799",
" X c #969799",
".X c #9A9EA2",
"XX c #A4A6AA",
"oX c #A6A9AC",
"OX c #A9ABAE",
"+X c #AAADB1",
"@X c #AFB0B2",
"#X c #B1B3B5",
/* pixels */
"'  .=.X.| q :.8.8.8.3.=.i ) | :.>.8.+.i ( ) ) t q q i U :.2.8.s 3.8.8.,.] s t 0 0 ,.:.=.a i 8.8.:.( t 0  .k.>.} ) =.:.=.) r r ( ",
"a ( ) ) i i =.>.>.>.:.:.| 0 ) ' +.:.8.q i a i t a | >.3.:.:.:.) <.X.,.>.9.k.0 s s ( ) ( r _ 3.:.=.) t X.k.3.:. .q _ | ) ( q 0 i ",
"a ' i q q a ] X.=.=.=.=.+.0 r ( | +. .t 0 ) >.( | :.>.=.=.=.=.) |  .+.:.:.:.0 3.3.:.X.q q =.X.=.) t ) 8.%.<.:.( i 0 < : : r i q ",
"| 0.l.0.>.) i ( _ =.| | i :.X.i ( 0 0 ) >.0.=._ ( =. .=.X.=. .a ( | X.X.X.| a <.:.:.,.<.} i ) ) i | ) _ :.=.) ( i q a =.0.k.l.8.",
") 1.3.3.:. .| :.i ) ' r ( 8.0.a < q t :.:.:.=.| i ) X.X.| | ) i 0 ) ) | | i )  .O.:.:.:.@.i i t i 0.3.i i ) a 0 ) >.k.8.8.>.:.8.",
"i :.:.:. .( <.0.k.) 0 i | :.:.X.i X._ s =.=.=.) i i ( ( ( i 0 q 0 0 a s ( < )  .} :.X.:.p X.,.` ) ,.:.} r 0 t } _ :.=.=.:.:.:.=.",
"q  . .' ' i =.:.,.X.a q ) =.) p 8.8.3.) )  .] _ i q K K Y 1 Y K 4 4 ~ 8 R ! Y 7.P 8.) s i +.O.:._ i _ ) 0 t 8.0.) | X.X.=.=.| ) ",
"0 ) ) ) i i  .=.| i k.:.0 q i 2.:.:.U $.u.K u & K K U _ p p.[ %.l.q.~ b.{ *.g.y 7 & 7 ~ K 5.8.O.:.a i 0 i :.8.:.| a ) | ) ) ( i ",
"i q 0 0 0 i ) | q _ 8.0.| t :.1.Y P 7 B.D.p u.J.U @.D.D.5.c.z.b.b.b.~ 5.5.7.e.Y !.D.g.~ 7.K ; K 9 p ) y ] 8.,.O. .i a ( i 0 < 0 ",
",.a ( 0.) 0 0 t r | =.+.q 6.$.1 { c.K !.M.*.*.e.~ ~ C.5.~ 7.5.@.q.4.~ D.~ 5.e.D g.q.*.p.c.*.F.b.y 1 ~ %.) O.| | ) a 0 i q | >.:.",
":.( X.w.0.8.t i i ) ) t ^ 7 1 [ ).C.{ 5.F.{ { c.%.~ e.8.~ 7.4.{ M.b.#.S.U 4.q.S e.D.[ *.c.~ J.e.[ u.4.1 1 p.) ) r i +.8.( 8.3.1.",
"| a X.8.>.| X.+.i r i { U F.J.7 5.e.%.[ c.*.U J.5.U 5.5._ | o.#.c.e.U 5.~ 4.q.7 7.e.9 c.D.*.b.e.~ F.e.P { 7 K p :.8.1.>.>.| >.+.",
") r ) :. .( X.:.:.Y ! D p.c.e.4.Y p.c.K q.4.1 e.1.K 6.] _ 7.%.P ] @.7 ) K o.1.2 2.*.K e.7.5.q.{ b.w.e.~ D.4.3 L { >.>.:.:.a _  .",
") 0 ) | ) t X.:.7.u B.4.= 7.q.q.~ 4.M.P @.@.& _ s ; p w 5 U w 5 w 7 ; w 1 y p 1 t s 9 ` [ { @.D F.b.~ M.e.*.; ] 1 %.=.X._ e ( ) ",
"0 0 i ( i i ) ` y 5.c.g.4.3 4.e.e.7 4.p 1 5 @ # @ @ O O @ X @ @ . o o X o o o o o O & % @ p ] L F.4.U ).x.7 4.c.[ 7 _ ) ( 0 0 0 ",
") s X.a 0 t 1.4 ; 9 q.D.e.%.3 %.w.7 @ @ o o . o 6 7 _ _ _ _ _ _ U U | ~ _ _ _ _ y 6 . . . O O 6 o.3 g.c.U 1 F.F.8.5 Y 0 i  .' >.",
"X.| 0.8.8.:._ u.C.p.% ~ 9.e.*.1 6 ; @ . y %.|.oXXXOXOXXXOX+X.X[.n.z.`..XOX+XoXOXOXoXoX X4.y . o @ & 4.] 5 c.D.l.y U @.Y 8.1.8.8.",
"_ _ 8.1.>.>.7 p.D.C.5.; w o.] ; o o y ).@X#X|.[.`.[.[.[.].[.[.].m.z.[.].[.[.[.].}.].]. X#X#X'.u . @ 3 3 $.c.%.7 7.F.e.3 #.,.,.,.",
"| a >.>.>.Y y 6 @.b.e.q.! 1 ; @ . e.#XoX].].[.).D.b.c.7.5.&.).].c.n.[.].&.&.7.c.b.A.).`.].].XX#Xp.. o 6 @.] 1 M.M.M.q.U p :.O.:.",
") ( =.:.$.7 M.c.@ ; ] q.O.y @ . 4.J.x.[.).p.D g f z x x z d ).[.n.l.].`.g z x z x d g Z 7.^.{.n./.4.. 1 1 P B.J.D.e.*.y Y :.| X.",
"t q } } 7 %.l.D.D.5.@ y ] ; o 7 0.] 1.c.d z x V E W L.I.E z ).[.n.n.[.`.z E Q Y.P.n W m g d g.e.| q.y o ; 8.@.[ Y 1 & [ y K i i ",
"t i t t 1 U 5.M.M.M.5.u % @ : < 0 t &.g m I.Q U.U.I.Y.R.E x ^.[.n.z.].).x E Y.E.U.V T.I.n m z %.` < < - @ 3 7 [ 4.c.b.e.[ { 0 q ",
"0.0.w.p Y ; 6 ] @.@.4.5.K @ < q y i w Q U.U.P.U.I.I.T.T.E v _.[.n.n.].`.x W T.E.T.V T.U.m P.Q 9 a u t , o 1 e.g.D.F.z.O.p U :.8.",
"8.8.8.P 6 4.7.~ @ ; ; p ; X < s p : i J U.T.U.U.Q Y.T.Y.E z /.[.z.z.].`.x Q T.E.U.V T.T.m T.! a > p p < . 1 [ ] p 3 ; ; @ ^ | O.",
":.:.O.%.K M.J.F.D.M.p.[ = 6 M.t | - & t / I.Y.I.Q Y.T.Y.B g _.[.n.n.[.`.x W Y.E.U.E Y.Y.B / e & - ] i e.7 ; [ 7.$.{ p.4.K u.} +.",
"X.X.) 1 p 4.q.q.1.6.5.5.$ s ~.[ q t 0 a Y P.I.Y.Q R.T.T.E f /.{.n.n.[.`.x E Y.E.I.W Y.Y.B I | 0 s t ] `.U & 5.p.M.M.J.c.] ^ )  .",
") ( t 3 ; 1 5 7 7 6 s 6 + _ (.J.P : 0 < R F L.T.E E.T.T.E f /.[.n.n.[.`.G V T.E.I.E Y.Y.A a , e < { ).(.[ & ] ] [ @.[ [ 6 7 ) ) ",
"0 0 : u.6 c.b.M.D.b.7.; o [ _.[.5.: * A , 0 D Y.E R.T.Y.W j /.[.n.z.[._.G E Y.E.I.E R.J < , Z h , { [.(.{ @ U 1 4.p.p.p.@.p - < ",
"O.] _ a.3 8.c.D.c.q.8.6 X ~ /.[.4.Z t u < ; w F B E.Y.I.Q j (.[.m.n.{.(.k V Y.E.Q W J w 1 : 7 t Z $.[._.{ @ e.C.F.).).c.5.$ e.+.",
"8.] +.Y 5 6 6 3 4 1 4 % . U _.[.e.r.y 0 ) 6 i ] T Q.Q.y.y.$.(.[.n.c.[./.&.t.W.Q.y./ | ) : | 0 p r.w.[.^.$.& U p U ] [ [ U y 8.8.",
"8.) | #.5 { %.b.M.M.B.@.+ ] _.[.G.m.n.{ | t t : t a G.^.S._.(.{.c.z.[.(.S.G.].G.m.i < 0 i ! w.l.~.^.[._.| @ K %.{ *.p.c.$.K :.1.",
"| a ] 7 6 @.q.q.4.4.4.y + [ _.[.S.x.H.m.o.- p e : < e x.m.G.^.[.n.l.]./.Z.m.H.Z.< - : t : ,.~.Z.G.G.[.(.O.& 5.c.c.D.F.e.1.4 :.=.",
"| i ) ^ % 5 6 p p w w 1 = _ ).[.4.v l v x 6 3 U t ; i i z D /.[.z.z.[.^.P l c q 6 - < , 7 v v z z 4.`./.{ ; _ ] _ o.@.{ ] 8 ] ' ",
"i 0 t %.6 5.7.p.b.b.p.p @ ] (.[.4.K.n K./ x D : p 0 , a t < D.{.n.l.[.).I B G O.y : | 4 z W L.E E q.[./.@.o U [ & @ O 4 @ D 0 t ",
"] i e 1 6 e.7.e.b.J.F.%.= _ (.].4.Y.B T.T.V B B j < D 7 < < t n.l.e.[.^.Y 7 p < < s G E B P.R.Q L.e.`.(.@.$ 7.D.F.F.D.B.e.; e t ",
">.0.q.2 6 ` | q.p.c.e._ $ _ (.].0.Y.m T.T.K.Y.Q k > A I t : t t O.w.'.H.q : < 4 S - Q E.n Y.R.Q P.e.[./.o.1 >.l.e.q.q.8.{ ; s | ",
">.8.8.$.% 5 ; > > ; > ; @ _ ^.].0.Y.B Y.Y.Q R.Y.M b 9 e i 0 < s r ( n.i 5 - q 9 t 4 P.E.n T.R.Q Q k.`.^.o.@ 1 P y p 6 6 1 4 )  .",
":.>.+.2 U B.M.p.M.F.p.{ @ U (.].e.Y.B T.Y.W R.Y.E E B c j < i < ( R 0 ] s < O.: k B Y.E.n Y.R.W I.l.{./.] @ 1.5.p.c.c.M.U ~ ) ) ",
") X.) [ U 5.F.D.c.q.e.%.& P (.[.n.d.a.j.j.j.j.j.a.j.u.u.e.< s t r , 0 , 0 t &.u.u.s.j.j.i.j.h.s.j.l.].(._ @ %.c.p.q.c.D.{ 7 a i ",
"i a < [ t @.4.@.) ] | y @ p ^.[./.n.)./.m.`.G./.`.n.`.H.S.{ 0  .i : t < < , s n./.`.n.`.H.S.{.G.~.~.[._._ $ w w 6 6 y p 7 ; i 0 ",
"< : < #.& 1 1 & % & & @ o y ~.[.Z.n.S.Z.c.D.n.m.G.l.D.m.0 0 e < < +., 0 ] - < t x.S.e.S.C.n.S.c.Z.m.[./.s % u.M.M.c.b.C.5.P < q ",
"2.:.8.1 [ M.).{.!.F.M.{ @ 7 H.[.n.x l n n x n x g p ] 0 > : < s 0 - < 0 e < < ] s z b M g n n z v 0.`./.K % q.c.M.w.q.c.g.K t ] ",
">.,.9.p y 4.p.M.7.4.1.[ ; y ^.[.x.W B I.U.B G 0 0 7 - 0 3 t t ! p e ] t 0  .0 0 < e 0 H M U.U.E L.q.`./.K & X.@.4.%.@.@.U $.s ` ",
"=.>.2.Y 1 i ] U p 6 > ; o 7 G.].n.Q B Y.Y.3 t 4 - w 2 0 i ] 0 ] t U S.%.[ 1 ; G w - 4 6 9 Y.T.Q L.0.[./.y @ @ ; 1 & 1 2 ; K a a ",
") >.@.p.% [ $.p.b.M.M.%.@ 6 G.`.m.b w > K  .s : ) 6 S < A $.4.M.[ s [./.%.b 6 S y ] : ] ] y , D B 0.`./.w ; c.F.J.J.F.D.c.9 w.s ",
")  .+.7 ~ q.e.f.e.D.b.$.@ 3 /./.+.a 3 : , : t s y q S z I.i.^.[.[ p [./.@.W n S e 9 t 0 : < , 4 a ' (.(.7 $ 5.7.x.F.!.F.5.5 K i ",
"r r i [ t O.*.2.[ O.| 6 @ 1 ` e R i q ; t k h - c B V V E.r.^.].~ p './.1.Y.W B x b - h f a , q a p 0 } 7 @ p _ ! | @.,.] 5 w q ",
"a a p Y @ & 5 3 7 $.$.y @ & - e i r a o.0 0 e s N.N.N.N.N.M.H.[.] p [./.n.N.N.N.b.v.] 0 t 0 ` q t t i - 1 o @ o o # K #.U & %.| ",
"8.w.+.1 %.M.b.M.S.M.c.7.$ & t o._ ) - q.s ~ e.D.[.e.`.H.Z.].H.[._ w [.(.J.m.].G.~.[.q.%.U p @.- q R ) ( 4 = p.J.J.F.C.D.C.w D :.",
"=.>.>.$ ) q.q.5.@.@.8.@.@ 1 s , 0 5 7 z.4.l.q.z.c.0.z.z.q.m.H.].U w [.^.n.0.z.l.l.c.q.q.U Y [ K 3 0 0 i 1 = ] e.D.M.q.,.q.q q +.",
"=.=.=.7 6 6 w y w w w 3 @ * e t 8.n z B N x m m x m m z m &.~.].K w [.^.%.m m m v n m m x N m x n %.i t & @ ; 6 6 6 ; 5 6 ; $.| ",
"| | | 7 $.g.@.$.5.c.7.{ o & s < 0.Q B Y.Y.B Y.Y.V R.P.V E.u.^.].U 7 }.).%.U.Y.Y.E K.Y.R.E Y.Y.W W @.< ,.& @ { 5.b.D.F.B.5.8 5.` ",
") ) | & e.G.).p.e.7.q.4.& & b.J.l.I.B T.Y.V P.P.E E.P.V E.r.~.[.K 7 [.^.%.Y.R.Y.V K.T.R.W U.T.W K.,.H.H.& $ @.7.c.D.D.p.e.w 4 a ",
"i i q & s o.+.] R ` ] s % # S.{.z.V M I.P.V P./ B Y.W B U.r.^.[.w 7 [._.%.K.Y.I.B E K.Y.B I.I.V W @.[.^.# @ y | y P s p s 3 $.t ",
"0.0.=._ K $.#.#.] $.5.K @ # G.].n.n.G.~.'. X X X X[.).G.n.c.^.}.w 2 [.^.n.m.G._.[. X X X X'.^.Z.m.k.{.~.# @ 9 $.*.7.p.b.p.; [ 8.",
"8.8.3.& M.b.G.J.M.n.e.{ + # S.[.[.[.[.`.[.[.`.}.].].].[.[.].[.}.K 7 [.[.[.].[.'.[.`.[.}.].}.[.[.[.].].^.# ; [ m.J.c.e.c.e.5 I +.",
">.:.X.@ _ o.1.>.:.] o.y + # c.D.Z.G.~.Z.D.S.Z.S.G.S.S.G.Z.G.G.G.7 2 S.S.S.S.S.S.G.G.Z.G.G.G.D.G.G.S.D.c.# @ p O.O.@.@.] ) 1 D _ ",
"X. .' ! O O @ o @ # o 1 y 2 h h C Z C C C C C C C C C C C C C C h h C C C C C C C C Z C C C C C C C C h 2 7 & = . & ; : @ ! s a ",
") ) i 0 ) | :.=.O.i | k.:.i q a } :.1.:.r ( =._ 0 0 i <.<.:. .) _ =.:.<.<.( i r ( ) r 0 0.8._ r r 0 q ) 8.,.,.:.+.a i ` ' ) i i ",
"0 0 < q ( ) ) ( s i :.1.8.=.i q ( =._ i _ i i r i | ) _ =.:. .) a _ =.=.:.( =._ t : < _ 8.>.=.) q a ,.a ( =.=. .` i e a i 0 < 0 ",
":.:.} a q q a ( 0 ( =.=.:.:.s q q 0 i | :.| i ( 3.} ) i =. . .( ( )  .=._ ) =._ | i t X.=.=.} r ) 0.8.:.i a ) ) ( t q 0 t a } =.",
":.3.l.l.k.=.q i q ( ) } } ( _ :.a i ( } O.9.i _ | } ( r ) ) ) i r ( ) ) ) ( =._ ) t a | | ) i 0 8.,.>.| ) 0 r r 0 ( ,.8. .s  . .",
"=.:.,.8.8.>._ k.=.i 0 ( ( ( :.:.3.i a ) | >.} t ) ) ) q i ( ( < r i ( ( ( ) ) ' i q t i i r q p ) =.:.} ) 0 q t k.k.0.>.X.i ' } ",
"=.:.,.,.>.a >.0.0.k._ < e )  .:.3.3.r ) _ :.:.r ( ( i < q 0 0 6 r < 0 r < ( ) ) < +.>.( q 0 ) k.} q ) a r i k.p 2.9.>.:.X.t ( ' "
};
