/* XPM */
static char * floor_xpm[] = {
"64 64 687 2",
"  	c #3F4249",
". 	c #43454D",
"+ 	c #46484F",
"@ 	c #46474F",
"# 	c #43434B",
"$ 	c #313034",
"% 	c #4B4B52",
"& 	c #515158",
"* 	c #525359",
"= 	c #525258",
"- 	c #515258",
"; 	c #45454C",
"> 	c #343339",
", 	c #3A3C43",
"' 	c #42454C",
") 	c #4A4A52",
"! 	c #4C4D53",
"~ 	c #444349",
"{ 	c #34353C",
"] 	c #393B43",
"^ 	c #3D3E45",
"/ 	c #3E3F46",
"( 	c #323135",
"_ 	c #2E2D31",
": 	c #312F32",
"< 	c #353438",
"[ 	c #424248",
"} 	c #4B4D52",
"| 	c #4D4F55",
"1 	c #55585F",
"2 	c #333236",
"3 	c #4E5056",
"4 	c #505259",
"5 	c #4F5056",
"6 	c #4B4C51",
"7 	c #3F3F44",
"8 	c #37363B",
"9 	c #313033",
"0 	c #2A2A2E",
"a 	c #36363A",
"b 	c #42444B",
"c 	c #313238",
"d 	c #38373D",
"e 	c #55575D",
"f 	c #505157",
"g 	c #494A51",
"h 	c #37373D",
"i 	c #313035",
"j 	c #2F2F34",
"k 	c #4D4E54",
"l 	c #56585F",
"m 	c #4C4D55",
"n 	c #3A3A40",
"o 	c #4A4B52",
"p 	c #45464D",
"q 	c #383A41",
"r 	c #32333A",
"s 	c #34363D",
"t 	c #373940",
"u 	c #363539",
"v 	c #46464E",
"w 	c #4D4D54",
"x 	c #4D4D53",
"y 	c #4C4C52",
"z 	c #4E4F57",
"A 	c #43444A",
"B 	c #323237",
"C 	c #3B3D44",
"D 	c #43444B",
"E 	c #48494F",
"F 	c #4B4C52",
"G 	c #505057",
"H 	c #303035",
"I 	c #32343B",
"J 	c #303034",
"K 	c #323133",
"L 	c #4E4F56",
"M 	c #4D4E55",
"N 	c #484950",
"O 	c #3C3C41",
"P 	c #4B4C53",
"Q 	c #53555B",
"R 	c #53555C",
"S 	c #3B3B41",
"T 	c #36383F",
"U 	c #47474E",
"V 	c #4E4E55",
"W 	c #4B4B53",
"X 	c #43454C",
"Y 	c #373941",
"Z 	c #323033",
"` 	c #55565C",
" .	c #4C4D54",
"..	c #474850",
"+.	c #3C3D44",
"@.	c #323136",
"#.	c #424349",
"$.	c #41434A",
"%.	c #313239",
"&.	c #2F2E31",
"*.	c #2E2F36",
"=.	c #32333B",
"-.	c #38373A",
";.	c #414146",
">.	c #353439",
",.	c #37363C",
"'.	c #404149",
").	c #44454C",
"!.	c #47484F",
"~.	c #47484E",
"{.	c #45474E",
"].	c #474950",
"^.	c #302F33",
"/.	c #3A3B41",
"(.	c #414249",
"_.	c #484951",
":.	c #43434A",
"<.	c #2D2B30",
"[.	c #2E2E32",
"}.	c #404046",
"|.	c #4C4E55",
"1.	c #363538",
"2.	c #353337",
"3.	c #302F32",
"4.	c #38383D",
"5.	c #44464D",
"6.	c #393C43",
"7.	c #313135",
"8.	c #46464C",
"9.	c #4A4B53",
"0.	c #42434B",
"a.	c #2C2B30",
"b.	c #28282E",
"c.	c #262529",
"d.	c #2A292C",
"e.	c #353437",
"f.	c #45464B",
"g.	c #56575C",
"h.	c #5B5C62",
"i.	c #54555C",
"j.	c #4C4C53",
"k.	c #3F3F45",
"l.	c #333237",
"m.	c #393A41",
"n.	c #404148",
"o.	c #42444C",
"p.	c #313036",
"q.	c #4C4E53",
"r.	c #44444A",
"s.	c #2F2F36",
"t.	c #2F2D31",
"u.	c #3D3D42",
"v.	c #505158",
"w.	c #52535A",
"x.	c #48484F",
"y.	c #3D3D43",
"z.	c #45464E",
"A.	c #44464C",
"B.	c #44464E",
"C.	c #333338",
"D.	c #42444A",
"E.	c #414147",
"F.	c #494A52",
"G.	c #3B3B40",
"H.	c #3D3F46",
"I.	c #2F2F35",
"J.	c #36353A",
"K.	c #44454D",
"L.	c #3B3D45",
"M.	c #2E2E34",
"N.	c #353335",
"O.	c #3D3C40",
"P.	c #4E4F55",
"Q.	c #595B61",
"R.	c #585B61",
"S.	c #46484E",
"T.	c #3E3D42",
"U.	c #46464B",
"V.	c #494A50",
"W.	c #343439",
"X.	c #3C3F46",
"Y.	c #303036",
"Z.	c #3F4046",
"`.	c #56575D",
" +	c #29282D",
".+	c #333132",
"++	c #343233",
"@+	c #4A4B51",
"#+	c #42424A",
"$+	c #40424A",
"%+	c #3E4148",
"&+	c #313138",
"*+	c #3F4148",
"=+	c #46474E",
"-+	c #45464C",
";+	c #383639",
">+	c #343337",
",+	c #2C2D33",
"'+	c #424247",
")+	c #58595F",
"!+	c #37383E",
"~+	c #3A3B42",
"{+	c #424348",
"]+	c #505159",
"^+	c #55575E",
"/+	c #4A4A51",
"(+	c #343338",
"_+	c #3A3A3F",
":+	c #54555B",
"<+	c #53545B",
"[+	c #3B3A3F",
"}+	c #2F2F33",
"|+	c #34343A",
"1+	c #404249",
"2+	c #404047",
"3+	c #373638",
"4+	c #3E3E43",
"5+	c #484A51",
"6+	c #33343A",
"7+	c #383A42",
"8+	c #383B42",
"9+	c #2D2C2F",
"0+	c #2D2E35",
"a+	c #34353D",
"b+	c #393A42",
"c+	c #35373E",
"d+	c #43464D",
"e+	c #353538",
"f+	c #4B4D54",
"g+	c #37363A",
"h+	c #404045",
"i+	c #2F2E32",
"j+	c #2B2A2F",
"k+	c #39383D",
"l+	c #494951",
"m+	c #41444B",
"n+	c #3D4047",
"o+	c #333238",
"p+	c #4E4E54",
"q+	c #44454A",
"r+	c #39383C",
"s+	c #303136",
"t+	c #3A3D44",
"u+	c #52545A",
"v+	c #3E3F45",
"w+	c #43444C",
"x+	c #3A3C44",
"y+	c #2F2D30",
"z+	c #27282D",
"A+	c #2E2C2F",
"B+	c #3D3D41",
"C+	c #414145",
"D+	c #38373B",
"E+	c #333135",
"F+	c #2E2D30",
"G+	c #333133",
"H+	c #35363D",
"I+	c #3C3E45",
"J+	c #3C3F45",
"K+	c #3E4047",
"L+	c #34343B",
"M+	c #45454D",
"N+	c #4B4C54",
"O+	c #3B3B3F",
"P+	c #39383E",
"Q+	c #383A40",
"R+	c #39393E",
"S+	c #515359",
"T+	c #47474F",
"U+	c #2E2D32",
"V+	c #35343A",
"W+	c #44444B",
"X+	c #35353A",
"Y+	c #595A60",
"Z+	c #4B4B51",
"`+	c #2D2D33",
" @	c #2F3036",
".@	c #2D2C30",
"+@	c #4F4F56",
"@@	c #4D4F56",
"#@	c #404147",
"$@	c #2C2C32",
"%@	c #33343B",
"&@	c #3D3D45",
"*@	c #42434A",
"=@	c #343336",
"-@	c #36363C",
";@	c #515157",
">@	c #3D3E43",
",@	c #3F4149",
"'@	c #37383F",
")@	c #2C2C33",
"!@	c #2E2F34",
"~@	c #292A31",
"{@	c #29292D",
"]@	c #414148",
"^@	c #55565D",
"/@	c #333234",
"(@	c #333339",
"_@	c #4C4C54",
":@	c #3E3F44",
"<@	c #474951",
"[@	c #2A282C",
"}@	c #3B3C43",
"|@	c #393A40",
"1@	c #3C3C40",
"2@	c #302F35",
"3@	c #373A41",
"4@	c #2E2F35",
"5@	c #2B2A2D",
"6@	c #323134",
"7@	c #4B4D55",
"8@	c #3C3C42",
"9@	c #2F2E33",
"0@	c #2C2D34",
"a@	c #484850",
"b@	c #343236",
"c@	c #3B3B42",
"d@	c #383941",
"e@	c #424249",
"f@	c #383940",
"g@	c #34363C",
"h@	c #44444C",
"i@	c #302F34",
"j@	c #353336",
"k@	c #49494F",
"l@	c #4A4C53",
"m@	c #494C53",
"n@	c #46474D",
"o@	c #58585E",
"p@	c #55565B",
"q@	c #4F5057",
"r@	c #343235",
"s@	c #34353B",
"t@	c #3B3D43",
"u@	c #3D3E46",
"v@	c #3B3E45",
"w@	c #393B42",
"x@	c #3E3F47",
"y@	c #3C3E46",
"z@	c #3D3E44",
"A@	c #36373E",
"B@	c #515259",
"C@	c #36363B",
"D@	c #303137",
"E@	c #323239",
"F@	c #414247",
"G@	c #3C3B3F",
"H@	c #43464C",
"I@	c #34333A",
"J@	c #2E2C30",
"K@	c #35353C",
"L@	c #33353C",
"M@	c #3A3C42",
"N@	c #41424A",
"O@	c #3F4047",
"P@	c #3E4048",
"Q@	c #3F3F47",
"R@	c #393940",
"S@	c #3D3F47",
"T@	c #313137",
"U@	c #2E2D33",
"V@	c #2D2C31",
"W@	c #2B292D",
"X@	c #323034",
"Y@	c #313339",
"Z@	c #2D2E34",
"`@	c #343234",
" #	c #3B3C42",
".#	c #41434B",
"+#	c #2E2E33",
"@#	c #36373F",
"##	c #2C2B31",
"$#	c #3D3D44",
"%#	c #2F3037",
"&#	c #51525A",
"*#	c #54565C",
"=#	c #57595F",
"-#	c #3A3A3D",
";#	c #47474D",
">#	c #302E31",
",#	c #35353B",
"'#	c #2A292F",
")#	c #3C3D42",
"!#	c #343438",
"~#	c #31333A",
"{#	c #44474E",
"]#	c #46464D",
"^#	c #3A393E",
"/#	c #484A52",
"(#	c #525259",
"_#	c #39393F",
":#	c #37373B",
"<#	c #2B2C33",
"[#	c #2C2E34",
"}#	c #3F3F43",
"|#	c #3B3A3E",
"1#	c #47474C",
"2#	c #38373C",
"3#	c #303033",
"4#	c #38383E",
"5#	c #3A393F",
"6#	c #3F3F46",
"7#	c #323031",
"8#	c #2A2A2F",
"9#	c #45474F",
"0#	c #353539",
"a#	c #44454B",
"b#	c #333439",
"c#	c #444449",
"d#	c #4E4F54",
"e#	c #3E3E44",
"f#	c #2F2E34",
"g#	c #585A61",
"h#	c #5A5D64",
"i#	c #2F2E30",
"j#	c #373539",
"k#	c #505156",
"l#	c #3F3E43",
"m#	c #4F4F55",
"n#	c #333337",
"o#	c #2B2B31",
"p#	c #333336",
"q#	c #53545A",
"r#	c #27262B",
"s#	c #2B2B30",
"t#	c #3B3C44",
"u#	c #36363E",
"v#	c #323032",
"w#	c #29282E",
"x#	c #505056",
"y#	c #525257",
"z#	c #434348",
"A#	c #484A50",
"B#	c #3C3D43",
"C#	c #535359",
"D#	c #3C3C43",
"E#	c #40434A",
"F#	c #373639",
"G#	c #2C2C31",
"H#	c #2B2A2E",
"I#	c #3A393C",
"J#	c #444348",
"K#	c #4C4D51",
"L#	c #48484D",
"M#	c #2D2E33",
"N#	c #28282D",
"O#	c #4F5158",
"P#	c #39393D",
"Q#	c #323339",
"R#	c #35383F",
"S#	c #51535A",
"T#	c #323338",
"U#	c #3A3A3E",
"V#	c #363437",
"W#	c #35363E",
"X#	c #434347",
"Y#	c #515257",
"Z#	c #535358",
"`#	c #2D2D32",
" $	c #29292F",
".$	c #43454B",
"+$	c #333136",
"@$	c #2A2A31",
"#$	c #484B52",
"$$	c #4E5057",
"%$	c #5D5D63",
"&$	c #4D4E53",
"*$	c #4A4A50",
"=$	c #57585E",
"-$	c #525358",
";$	c #36373D",
">$	c #3A3A42",
",$	c #2C2B2F",
"'$	c #2F2D32",
")$	c #302E33",
"!$	c #56585E",
"~$	c #3F4045",
"{$	c #3F4048",
"]$	c #323238",
"^$	c #494950",
"/$	c #54555A",
"($	c #302E32",
"_$	c #35363C",
":$	c #3B3A3D",
"<$	c #3B3A40",
"[$	c #2D2F34",
"}$	c #2F2F32",
"|$	c #4B4D53",
"1$	c #4C4E56",
"2$	c #313136",
"3$	c #3B3A41",
"4$	c #5C5D64",
"5$	c #323137",
"6$	c #3A393D",
"7$	c #48494E",
"8$	c #4A4B50",
"9$	c #3C3E44",
"0$	c #45474D",
"a$	c #464850",
"b$	c #45454B",
"c$	c #45454A",
"d$	c #3C3B41",
"e$	c #343335",
"f$	c #323236",
"g$	c #38383F",
"h$	c #333235",
"i$	c #51545B",
"j$	c #4F5055",
"k$	c #515156",
"l$	c #494A4F",
"m$	c #3A3B40",
"n$	c #303138",
"o$	c #3A3D45",
"p$	c #2B2C31",
"q$	c #353436",
"r$	c #48484E",
"s$	c #3A3940",
"t$	c #34353A",
"u$	c #42454B",
"v$	c #272629",
"w$	c #242429",
"x$	c #37373C",
"y$	c #29282C",
"z$	c #201F25",
"A$	c #27272D",
"B$	c #2C2C2F",
"C$	c #2D2D31",
"D$	c #36373C",
"E$	c #3E4046",
"F$	c #2C2B2E",
"G$	c #312F31",
"H$	c #393A3F",
"I$	c #3D3C41",
"J$	c #36383E",
"K$	c #232329",
"L$	c #27262A",
"M$	c #2C2B2D",
"N$	c #4A4A4F",
"O$	c #3E3D43",
"P$	c #404145",
"Q$	c #46474C",
"R$	c #434349",
"S$	c #54565D",
"T$	c #38383B",
"U$	c #3E3E42",
"V$	c #52545B",
"W$	c #35373D",
"X$	c #38373E",
"Y$	c #2D2D34",
"Z$	c #2A2A30",
"`$	c #302E30",
" %	c #2C2A2E",
".%	c #2F2D2F",
"+%	c #414149",
"@%	c #55555B",
"#%	c #35353D",
"$%	c #3D3C42",
"%%	c #4E5058",
"&%	c #47484D",
"*%	c #2E2E35",
"=%	c #3C3D45",
"-%	c #39383B",
";%	c #3C3C3F",
">%	c #3E3E45",
",%	c #2B2A30",
"'%	c #414246",
")%	c #29282B",
"!%	c #2E2C2E",
"~%	c #414045",
"{%	c #47494F",
"]%	c #252428",
"^%	c #343237",
"/%	c #56585D",
"(%	c #3E3E46",
"_%	c #404048",
":%	c #36353B",
"<%	c #53555D",
"[%	c #3F4147",
"}%	c #414248",
"|%	c #55585E",
"1%	c #2E2D2F",
"2%	c #36363D",
"3%	c #312F34",
"4%	c #3A3A41",
"5%	c #535459",
"6%	c #49494E",
"7%	c #37373E",
"8%	c #38393F",
"9%	c #26252B",
"0%	c #292A30",
"a%	c #2E3037",
"b%	c #303239",
"c%	c #2B2C32",
"d%	c #312F33",
"e%	c #404146",
"f%	c #54545A",
"g%	c #2B2B2F",
"h%	c #302F36",
"i%	c #312F30",
"j%	c #353334",
"k%	c #34373E",
"l%	c #494B52",
"m%	c #2C2C30",
"n%	c #4F5157",
"o%	c #2B2A2C",
"p%	c #2B292B",
"q%	c #28272B",
"r%	c #4D4D55",
"s%	c #33333A",
"t%	c #2A292D",
"u%	c #302F30",
"v%	c #4B4B50",
"w%	c #3C3B40",
"x%	c #4C4D52",
"y%	c #3F4248",
"z%	c #38383C",
"A%	c #3E3D41",
"B%	c #37393F",
"C%	c #4A4C52",
"D%	c #3A3B43",
"E%	c #31333B",
"F%	c #3F4044",
"G%	c #494B50",
"H%	c #4D4E56",
"I%	c #252429",
"J%	c #303037",
"K%	c #26262C",
"L%	c #333233",
"M%	c #333239",
"N%	c #37373A",
"O%	c #33353D",
"P%	c #363435",
"Q%	c #3D4046",
"R%	c #363438",
"S%	c #484B53",
"T%	c #363840",
"U%	c #2E2C31",
"V%	c #53535A",
"W%	c #414349",
"X%	c #26262B",
"Y%	c #393C42",
"Z%	c #404349",
"`%	c #32343A",
" &	c #2F3138",
".&	c #28272C",
"+&	c #57575C",
"@&	c #3A3D43",
"#&	c #303238",
"$&	c #363439",
"%&	c #5A5C62",
"&&	c #363639",
"*&	c #434449",
"=&	c #27282E",
"-&	c #26262A",
";&	c #32343C",
">&	c #3E4147",
",&	c #302F31",
"'&	c #595B62",
")&	c #404247",
"!&	c #4C4E54",
"~&	c #5A5B61",
"{&	c #333134",
"]&	c #2A2B31",
"^&	c #27272E",
"/&	c #323035",
"(&	c #3F3E46",
"_&	c #25242A",
":&	c #2D2B2F",
"<&	c #323132",
"[&	c #2B2D33",
"}&	c #414046",
"|&	c #54565B",
"1&	c #313032",
"2&	c #5F6167",
"3&	c #57585F",
"4&	c #4F4F57",
"5&	c #505258",
"6&	c #454850",
"7&	c #595A61",
"8&	c #2D2F35",
"9&	c #57585D",
"0&	c #57575D",
"a&	c #2E2E31",
"b&	c #35383E",
"c&	c #55575C",
"d&	c #52555C",
"  . + @ # $ % & * = - ; > , ' ) ! * ~ { ] ^ / ( _ : < [ } | 1 2 3 4 5 6 7 8 9 0 a ! ) b c d e f g h i j k l m n [ o g p q ( r q ",
"s t , , { u v w x y o z A B C D E F G H I r J K d v L M % o N O P E w k Q R : S d n ^ T $ U V W X Y Z - `  ...+.@.#.$., %.&.*.=.",
"-.;.>.( &.,.'.).!.~.N {.].^.2 /.(._.:.<.[.}.|.1.].g ) _.N _.+ h # p g P E !.2.4 M P [ 3.4.{.!.5.6.7.8.& V 9.0., i a.b.c.d.e.2 3.",
"f.g.h.i.j.k.l.m.n.5.o.$.p.q.r.c t s.t.u.v.w.x.y.y.z.A.v {.B.' C., D.p ..@ +.E.F.o % V L G.4.H.t I.E J.).g K.L.T M.N.O.P.e Q.R.S.",
"T.5 f P.F.5.U.V.W.X.  Y.Z.- `.8  +.+++L % @+@ #+$ $+o.' $.$.%+^.&+C *+0.b J n.=+N N ) 9.-+;+>+,+'+)+E l.!+~+r 3.{+]+^+f G y /+D ",
"(+F.) _.5._+k :+<+[+}+|+1+W V 2+3+f.4+O 5+_.).H.C.6+7+8+T I *.9+d.0+a+b+c+9+*+d+5.@ ....e+g f+g+h+5 g 1+i+j+k+[+N l+E F P W F.+.",
"p.' b m+n+o+o ! p+q+r+s+t+5.G.r+u+& L G.v+w+*+x+&+y+z+a.j A+B+C+D+J.E+F+d.G+H+I+J+*+K+L+S M+) N+O+P+'.Q+t.R+:+S+4.p D -+N T+(.H+",
"U+X.t+8+%.V+{.=+W+X+Y+Z+`+s+D+m 9.9.F.p 2 I+,  @.@u.~. .]+-+@++@3 @@N+#@4+g y._ $@%@H+&.&@*@@ + ].=@B j+-@- ;@V.>@/.,@K+H.C '@)@",
"< H !@~@{@{ I+  i ]@G ^@}./@]...p ..@ X (@i+@. .4+L G @+_@D h+ .o _.5.:@~.9.5+<@1.l.[@l.}@0.w+m+|@r+1@/@/+P.y ~.w+2@3@T 4@a.5@6@",
"7@-@8@:+;.9@0@%.p.:.a@T+b@c@b d+b X 1+d@9@k.V @+p y.M V.g (.>+g p B.$+a @ ..5.C '+4 e@B f@  *+g@9 E v.r+h@U -+5.H.Y.i@l.j@@+k@l@",
"m@-@n@o@p@q@j@r@s@t@I+@.k.W.u@H.v@w@%@: U o W !.@ l.]@p X H.^.x@1+y@x+7.D X   W.!._.{.n.l.g@s &.z@g !.A (++.I+A@H _+@+B@(+^@- _@",
"1+h M+- 5 [ 8.=+C@D@ @u.v.=+l.E@{ D@F@G@D @ !.5.H@(@I@I+C T J@K@, H+L@( M@I+t ( ..=+N@$+O@6@y+V+w@n.b 5.J.B 4@n @+;@p++@r.x.@+n@",
"P@s+Q@g T+4.!. .g R@F+5+N 5.~+U+U+}.5 % < n.*+*+S@%@i+r T@U+6@p.U@V@W@X@4@Y@Z@a K+' $.I+H+`@r@j c+6.+.(+r+e.O |.V.F w o ]@ #$..#",
"] +#+.$.L.@.5.N o A.D+S 0.K+@###k.M P !.$#( A@Y %#a.k+#@S.R+D &#*#=#-#L ;#R+>#,#w@C n+t ^.o m 4+'#*.$ [ - F )#5.=+g l+D w@!#t 8+",
"0@j+L@c+~#2 L..#{#h *#n@V+%@`+`@n ]#@ {.y@^.i+.@^#F M W /#W./ _.g o g+P.f (#P.k.i@s 3@a.}.P _.F._#( e@o P  .:#  '.b I+~+%@F+<#[#",
"}#|#1#2#^.3#c t '@4#M _@h@C._+x.k+> }@I+I .@5#n.r+F N a@w+C.'@0.!...l.P  .j.T+6#9 7#8#l.2+b b $.9#0#^ a#).).y.b#t 6+i@$ O+c#U.d#",
"~.8.p@* 5 @+8.>.3.e#5+..O@@.L V !.>.f#*.a.D g#h#O e@..X n+W.{ , b b >...n@=+2+E@g+o -+>+f@I+C H.C >+( H.K+P@>.i#3.++j#R f k#;@d#",
"}.l#k#m#L _@v :@U.8._+x@s@F@P g _.m.$ n#l+q@o F.(.:#.#v@7+j Y.s v@t+X+' X C f@.@D G _@g C@s A@ @>+o -+o#4@.@q+5 e B@u N+j.j.x V ",
"{+^#j. .P 5.x@p#P.q#q#l#6@N ..@ 1+{ C@!.!.N =+{.b 3.H+s Z@r#&. +s#j 6@n+t#u#s.9@D x.!.@ O@v#w#i O@o.b ( '+e.]+x#y#`.z#z@_.g o A#",
"B#r+N ].*@+.A@2 L f C#q#V 5#D#E#%@>#F#$.{.5.$.H.7+G#&.H#: I#J#K#L#'+k+J.^.M#N#> *+n.0.K+< O#P#Q#R#E@n - S#F@A j.k P.~.a H.O@b {#",
"T#6@(.*+C q j+U#o y +@+@P.A#V#p.^.l+).a }@C q W#j R+V.` x X#Y#Z#m#f q@P < }.l#i@@#, m.V@W+p +.`# $[ g.- y .$>+h@).).#+: A@t g@g@",
"+$e.B B c @$5@_#K.!._.o 9.k+#$D G.@ p 0.( %.I.@.u $$% M V.2 - - 5  .) !.0#- %$&$>+4@N#4#z.1+T ,#*$=$-$f _@A 0#;$>$m.t 9 i+,$'$)$",
":+)+!$G+f.~$1.$ { ~+{$(.O@n b =+e@n H.H.]$Z -+=#2#]@N ) ]#i n@! ! ^$a@}@J.q#/$f {+[+($_$E#w@]$:$<$x#5 k 9.(.{ y+[$}$u.;+.$<@|$S+",
"L - - r@1$g q@k 7 _ %., 2$~+.#=+F x.> I $ -+6 ! :.2 {${.5.i+$#N =+D |@H 3$5 5 P >.f 5 9@ @+#f 4$< 5$~.N *@f@7.6$7$f )+8$9$*+).o ",
"o F % >+w+g w k#=$k 7#.@( A@' !.@+f 1#Z 0$p U 5+g C.W.C w@a.2@_$f@;$Z@&.D#!.) 6#k.V 5 E J@q+- f :.9 H }@H >+1@|. .p+P.V.C@J+b ..",
"@ ..D#g+$.a$W ! G z#G@b$=@&+,@!.A#y P#O.+.1+5.z.B.~+A+$@a.y+C+c$d$(+E+e$c M@K+f$6#x.F.g$R+@+P.j.h@h : h$P i$2#p !.N P =+@.6.*+' ",
"I+, D@W.v@1+K...N e.]+G 5 g+L+d+=+_+m#;@2#'@L.%+C J U#j$B@P#-$k$` w.|.).u (+i+C.H.' |@@.F.n@g D }@G#[+x l$a#n.m$0.(.$.x@^.n$o$X.",
"M.p$N#U+*.{ , ^ ;$G._.w f - O+H+W.; L Z+-+i@L@Y.^#q$q#q#+@_+r$;@p+P *@B.>+# s$E+t$q  +Z.$.w+D }@s#h+x#&$P =+u$( H+q w@@#i+v$w$G#",
"1#;.C+E.x$y$z$A$B$f@X V.! x#q#: C$).a@W+D$++t.-+` 4+/+V g  #k.j.o ~.E$f@R+S+V [ >.F$G$H$,@P@C I.I$`.x#V P !.o.J$_ K$L$M$/@q+~ N$",
"-$;.^$f ` @+q$i+3. @C @ !.P O$P$_+M._$l.Q$&$_+V.% [ k.v *@f@X+{.).n.t+M.k+g j.p+M k+p+}#h$%@%.1@e#^$w W !.$.H+8#b@R$S$T$b$V f k$",
"5 B+W+V m#U$-+V$A 3.'#I+d+h ^#9.o ( 8 ^$5 /$r$O@p X p.I+q r V@1+*+q W$,$4#).!.g =+;.f *$e#$ g+^+f+X$c@/ }@`+y+4+5+P +@1#E.N+w ! ",
"a#8 n.g T+>.:.o v.+@P#j+4@(+K+@ g 7$,.# % V Z+l.C t+i+Y$Z$[@`$i C.i@ %.%s.A@K+$.h ! V N }@a.S+P.g ).o+E@j+q+N+D+D !.Z+6 8 ).p U ",
"+%C@^ K.v+l.D 9.+@* @%c#j@#%X.@ 9.5 $%~+N@N L ( V@U+F@*$]#..J.q$%%g L M &%X+}$D@W.o z.^ c h+k P _.D t 9 k i.@+8 c@T+o 6 2 }@^ n.",
"Q#i+r H+*%l.=%D o 5 ;@= ~.&.c+X l+w k f#K@Y.a.U#-%f C#5 k v B.e.m@=+E P k ).;%k#c$4.m.Y i y F g =+q i p+x P.o |@( +.O@>%^.,%I.Y.",
"'%2#$ )%!%[.r +.+%M+^$/+u.X#B x+z.N  .O .@G$o B@E ~%V w g (.H.=@E#B.*@a#n@)#U./$Y#f r.^.[+~.{%).t#$ L#/$- L g / F+H A$]%F+^%i#:#",
"V :+/%'+n@'+^.G#'@(%_%g$6$q#k B , O@:%h+<%A.7 P E 2 -+N p O@q 6@q K+[%*@).>+b$5 p+@+g }%-%i (@f@H ;.1.r$+@V.p f@F$/@c#5 i.|%Z |$",
"F x#-$^#o G * z#1%Y.2%2.U F - '+j 9 /+M =+].1.K.a@3%n d+$.C r i#%.T q x+}@&.2+b$-+N p (+ .p (+j+U$`.W+( #@U 4%i+f.=$5%= P.F @.g ",
"g  .E l.N++@-$6%C+T.i#7%p !.U k.u f M ) @ *+8%X+9$s.&.Q#H+0@9%G$r#0%a%b%c%X@4%n.n.n.g$v+@ E 0$1.c#= % z@d%J.e%D+m#f%k#p+V N @.N@",
"x@K.c@> +%j.- g+:+Y+8.g%h%C X+i%o % N A.b q I : ,+r#j%e.>@Q$O#P @+F#S h+=@G$w#H+t#f@_ 1+5.p !.g+R+k.P c@.@8.`.n@6$P.p+Z+; _%.@'@",
"%.c+Z$o++.n.e@_+G - f n@,$o#P#5#< {.z.. C k%a%F+G.1@S.f+N o 9.l%o 4+F.| - w V.2 m%'#f$L.n+E$x$!.n%R+x$ +Q$w.k 8.d%S @ (.x@, 9+*%",
"o%v$p%q%c%%@$ ]@N+% @+m u.O.h.* V+X@m.q n$m%>.*@l%D 4.h@p .._.=+..!#(.N P w ! :#P.l#U+Y$T Q#>@9.% F D+_+r% .g *@T@>#s%&+$@t%u%!%",
"O#@+f v%P#.%/@H.'.#@'.}@< w.* x#}%^.i+s#2 1.N@*+$.b >.^ (.w+5.*@5.f#u@D ]#p A w%* x#W+@.r#$ *+@ !.w w.< D =+0.M@D@F+9 U$x%~._+O@",
"f+P.-$Z#}%I$a#l.{ 7+c+V@Q$k V j.^$(@K k.3 A#:%P@n+y%|@(@, t#I+C , ($, X.K+'.s@c#! j.P z%A%$ y@1+p N P A#9@w@q D@F+1.* ` C#p 4.&@",
"].w P.k l.#+P M 1@j+r#`@V#n@U M+(%3#F@/#....,.A@v@n+w@U+c+t q q L@V@s q B%x+C$*@A @ O@R+!$U f$C *+X !.4#1%$@+#O *@>+@+x#5 ).l.}@",
"O@N 9.D ^.b _.r%- '+`@C%#.h$-@D%2$}.2#X X d+R@i+E%c+r 9+a.2$( r+;.F%f#U+s# $,$O@O@1+W.# j.w U#l., n+&+&.G%-#q+N + 7.h w 7$]@i@q ",
"x+X K.h i H.z.) r%R$q+n@#+m.h$3.-+4 + ,#%+, t _ y++#>+(.N } r$U.@+/+H%5.F#{+( I%Y$&+5$).!.#@|#7$i@$@&.-+r%o e%v n.J%$ *@p ^ ( c+",
"*.n$c K%( T I+K...x$9.p '.m.i@A |.M+d+C i %.o#> g L < X =+E R$P#o V.]#}@4+!.|.V.$ 9+s%H.}@(+{+w z#L%_#M+T+_.k+$.n+D@_ M%+.H+_ 0+",
"5#8 g+h$h$_ M.H+-@#@K.X H.D@8 9.@ X .#C 9@( 4%|.N+9.,.^ . p D#N%_.=+w+_$e#D p l%2 2#F$*%2$m.{.)  .l#!+E#m+C 4#s@O%M#A+K >+}#A }%",
"4 R !.!.+%g$P%>+v#*+E#  T J.}%_+E#Q%w@Z@( g$5.z.z...~+0#%+H.7%R%b   H.]$/.1+X ^ _+7@6#h$l.A@^ K.6#9@( 8+c+I Z$>#h$I$-+V#S%d+9#_.",
"g 9.g V G n@u.].c@J.X+J$G#D {.*@@.s%$@j@j@.#  E#b d+H.i+T%8+n$J@C w@7+_ f@  H.n#*@z.+ D#(  @@#%@,$f. .$@o#U%k+k@B@V%<+< *+m+5.!.",
"+ _.N 9.N+u.W%. l@f+!.u.r@X .#o.~+($n {.O@h %+%+%+K+t+F$a.G# +d%,$q%X% %D@Y%q C..#m+Z%*+K@G+8#H#/.=+N ( J.P#|.o  .w @+:#f@v@1+5.",
"' K.p N _.>+K+$.B...V.P ~$N.|@w@D@R+9#K+, |+K@w@8+`%.@2#}.p =+l+$#N.e#; > j+[.L+C %+%+v@i+N d$i 6. #< *@O#0#(.@ ....w+-@W.T w@P@",
", %+b {#*+( 8+%+m+5.+ T+2 S+1#( ^.*@'   3@r d%4@i ~.}#n.*+..!.N D#2#g ..<@!+T$i %#c+Y +#n _%1+l.'#O *#S$_./ >.$.b K+, %#6@s T w@",
"(@( 2 f$9@i I 7+K+  m+C@[ 5%g.F < b E#P@8+ &_ 7 q@M ~.4., ' X {.7%k.@ X n+H $.].>@+#c%C.I+K+, >.U.=$x#V.+ H.( H+t D@b..&v#$ A+B ",
"+&)+N j#S.F@$ j %@@&Q+2 v M m#v._+e.w@v@%@>#v+N _.N @ l.q I+1+m+A@4#'   3@l.H.0.9.-+>+%#6.H+^.8.! @+% N 5.q #&9+q%F+$&}.L !.F#%&",
"Y#x#q@R++ 9.f ! 8 _ : ;$K+M+!.n w%L =@ @&&*&J.$.b X '.$ %@Y n+%+6+,#%+6.~#X+t K+K.z.o ( Z$,$~.E ~.~...5.H.W#2$P$h$*&* `.L !.j@f ",
"_@P z.x$(.!.w Y#^@:.b@V@c+b+p.u a@f 7$N.=+..8@W.I+C w@`+H b%*.=&-&]$t ;&`#r R#X.>&b K.(.,&e.{.(.*@D 1+q (@I$:+'&)&c$5 V o K.X@]#",
"{.X H.i 1++ 9.V +@B@$ 8.$ s#2 ~+T++@` d x$@ M+C.T@T%%.m%=@^#*&7 7 Q$y.n#9 0+O%8+v@n+>&M.7 z#>+w@I+q s H 1#f k#F ).u P N {.*+^.*+",
"H., L@i I+$.z.a@!.X+q+`.]#F#U%'@*@W V =+N.7%B.+.y+^.b@!&L 9.=+.$e#!.V.k M 1.9  @t , )@>+~&f y.{&b%M#i%-+F k  .) . 2 M@K+n+6.$ t ",
"M.]&^&/&R#, v@y@;$(+w 5 v.#+>.D@, B.(&< '+h$6+7.z%+ m$).l+!.K.}@m$5.T+F.N P#=+E._ _&:&V.& @+{._$<&E.=+u v+=+@ X C p.C.s  &[&M$U+",
"/+! R$2#2 J c c+V@D#!.l%g 5+2 v#J%U@< ).o }&++(.m *@w@_+{.b Z%s@-@E#b + #@k.@ n.*+e$z%~.) + K+M.c#|&q@D 2 2%H.w@k%$@1&9@9 5#=+!.",
"/++@Y+2&3&v e$l.9 %@I+.#0./.2+o F#!#D%X g P.b@'.X E#q 7.K+%+x+ @i , I+*+-@}@b   C 6@ #$.E#, s.>.Q ! g b ;$i+%.%#H R$4&5&4+n.6&{.",
"!. .p+- - @+h+7&@+(+U@c+J$_#_.W L >.s n+; ! ;.I@H.C t }+K@T R#K%3%c+Y 6.2@v@1+%+I.< h$!#%@8&$ < E.g {.  3@}+F+h+~&9&= o ~$,#d+*@",
"{._.P w @+D+L /$0&` h+.&B K+z.P P.5 B w@*+a@/+X@a+t n$ $9 a&3.1%G+1%i+J _ b&n+c+_ k ]#-@{&3.; c&O X+t+T 4@~$d&a q#- k o v+> v@Z%"};
